# xmcd
#
# Track frame offsets:
#	150
#	25277
#	42005
#	64807
#	94427
#	108005
#	138390
#	154665
#	187527
#	208597
#	228687
#	247287
#	276312
#	297597
#
# Disc length: 4223 seconds
#
# Revision: 2
# Processed by: cddbd v1.4PL0 Copyright (c) Steve Scherf et al.
# Submitted via: audiograbber 1.81.02
#
DISCID=ce107d0e
DTITLE=TRUST - rhythm' n' blues
DYEAR=1994
DGENRE=Blues
TTITLE0=Wild World
TTITLE1=Careless Child
TTITLE2=14 Letters
TTITLE3=Tribute To S.R.V.
TTITLE4=Oh Baby (We Got The Good Thing Goin)
TTITLE5=Big City Blues
TTITLE6=Son Of Mine
TTITLE7=Rainy Days
TTITLE8=Next Door
TTITLE9=I Wanna Boogie
TTITLE10=Don't Go Far
TTITLE11=Purrgatory
TTITLE12=No Meaning Blues
TTITLE13=Jane
EXTD=
EXTT0=
EXTT1=
EXTT2=
EXTT3=
EXTT4=
EXTT5=
EXTT6=
EXTT7=
EXTT8=
EXTT9=
EXTT10=
EXTT11=
EXTT12=
EXTT13=
PLAYORDER=
